<svg width="2885" height="984" viewBox="0 0 2885 984" fill="none" xmlns="http://www.w3.org/2000/svg">
<rect x="554" y="425" width="274" height="134" rx="60" fill="#09524E"/>
<path d="M630.611 507V478.878H638.136C642.436 478.878 645.79 480.039 648.198 482.361C650.606 484.683 651.81 488.166 651.81 492.81C651.81 497.483 650.62 501.023 648.241 503.431C645.862 505.81 642.579 507 638.394 507H630.611ZM635.599 502.958H637.792C640.63 502.958 642.823 502.141 644.371 500.507C645.919 498.844 646.693 496.279 646.693 492.81C646.693 489.37 645.919 486.862 644.371 485.285C642.823 483.708 640.63 482.92 637.792 482.92H635.599V502.958ZM657.056 507V485.887H662.001V507H657.056ZM659.55 482.189C658.661 482.189 657.945 481.931 657.4 481.415C656.855 480.899 656.583 480.211 656.583 479.351C656.583 478.52 656.855 477.846 657.4 477.33C657.945 476.814 658.661 476.556 659.55 476.556C660.439 476.556 661.155 476.814 661.7 477.33C662.245 477.846 662.517 478.52 662.517 479.351C662.517 480.211 662.245 480.899 661.7 481.415C661.155 481.931 660.439 482.189 659.55 482.189ZM682.113 507V489.8H674.115V507H669.17V489.8H666.332V486.102L669.17 485.887V484.038C669.17 481.859 669.743 480.068 670.89 478.663C672.065 477.258 673.929 476.556 676.48 476.556C678.114 476.556 679.49 476.814 680.608 477.33L679.662 481.028C679.261 480.827 678.859 480.684 678.458 480.598C678.057 480.512 677.569 480.469 676.996 480.469C676.107 480.469 675.405 480.77 674.889 481.372C674.373 481.974 674.115 482.863 674.115 484.038V485.887H682.113V483.694C682.113 481.487 682.643 479.681 683.704 478.276C684.793 476.843 686.585 476.126 689.079 476.126C689.853 476.126 690.57 476.198 691.229 476.341C691.917 476.484 692.49 476.656 692.949 476.857L692.003 480.555C691.286 480.211 690.527 480.039 689.724 480.039C687.947 480.039 687.058 481.229 687.058 483.608V485.887H691.186V489.8H687.058V507H682.113ZM701.169 507.516C698.904 507.516 697.256 506.785 696.224 505.323C695.192 503.861 694.676 501.797 694.676 499.131V485.887H699.621V498.486C699.621 500.235 699.879 501.467 700.395 502.184C700.911 502.901 701.742 503.259 702.889 503.259C703.806 503.259 704.609 503.03 705.297 502.571C706.014 502.112 706.773 501.367 707.576 500.335V485.887H712.521V507H708.479L708.092 503.904H707.963C707.046 504.993 706.042 505.868 704.953 506.527C703.864 507.186 702.602 507.516 701.169 507.516ZM724.676 507.516C723.242 507.516 721.809 507.244 720.376 506.699C718.942 506.126 717.71 505.423 716.678 504.592L719 501.41C719.946 502.127 720.892 502.7 721.838 503.13C722.784 503.56 723.787 503.775 724.848 503.775C725.994 503.775 726.84 503.531 727.385 503.044C727.929 502.557 728.202 501.955 728.202 501.238C728.202 500.636 727.972 500.149 727.514 499.776C727.084 499.375 726.525 499.031 725.837 498.744C725.149 498.429 724.432 498.128 723.687 497.841C722.769 497.497 721.852 497.081 720.935 496.594C720.046 496.078 719.315 495.433 718.742 494.659C718.168 493.856 717.882 492.867 717.882 491.692C717.882 489.829 718.57 488.309 719.946 487.134C721.322 485.959 723.185 485.371 725.536 485.371C727.026 485.371 728.359 485.629 729.535 486.145C730.71 486.661 731.728 487.249 732.588 487.908L730.309 490.918C729.563 490.373 728.804 489.943 728.03 489.628C727.284 489.284 726.496 489.112 725.665 489.112C724.604 489.112 723.816 489.341 723.3 489.8C722.784 490.23 722.526 490.775 722.526 491.434C722.526 492.265 722.956 492.896 723.816 493.326C724.676 493.756 725.679 494.172 726.826 494.573C727.8 494.917 728.746 495.347 729.664 495.863C730.581 496.35 731.341 496.995 731.943 497.798C732.573 498.601 732.889 499.661 732.889 500.98C732.889 502.786 732.186 504.334 730.782 505.624C729.377 506.885 727.342 507.516 724.676 507.516ZM746.333 507.516C744.384 507.516 742.621 507.086 741.044 506.226C739.467 505.337 738.22 504.076 737.303 502.442C736.386 500.779 735.927 498.787 735.927 496.465C735.927 494.172 736.386 492.194 737.303 490.531C738.249 488.868 739.467 487.593 740.958 486.704C742.449 485.815 744.011 485.371 745.645 485.371C747.566 485.371 749.171 485.801 750.461 486.661C751.751 487.492 752.726 488.668 753.385 490.187C754.044 491.678 754.374 493.412 754.374 495.39C754.374 496.422 754.302 497.225 754.159 497.798H740.743C740.972 499.661 741.646 501.109 742.764 502.141C743.882 503.173 745.287 503.689 746.978 503.689C747.895 503.689 748.741 503.56 749.515 503.302C750.318 503.015 751.106 502.628 751.88 502.141L753.557 505.237C752.554 505.896 751.436 506.441 750.203 506.871C748.97 507.301 747.68 507.516 746.333 507.516ZM740.7 494.444H750.074C750.074 492.81 749.716 491.534 748.999 490.617C748.282 489.671 747.207 489.198 745.774 489.198C744.541 489.198 743.438 489.657 742.463 490.574C741.517 491.463 740.929 492.753 740.7 494.444Z" fill="white"/>
<rect x="932" y="425" width="459" height="134" rx="60" fill="#490952"/>
<path d="M1022.38 507V478.878H1027.37V490.187H1038.76V478.878H1043.75V507H1038.76V494.53H1027.37V507H1022.38ZM1059.11 507.516C1057.36 507.516 1055.72 507.086 1054.2 506.226C1052.68 505.337 1051.45 504.076 1050.51 502.442C1049.56 500.779 1049.09 498.787 1049.09 496.465C1049.09 494.114 1049.56 492.122 1050.51 490.488C1051.45 488.825 1052.68 487.564 1054.2 486.704C1055.72 485.815 1057.36 485.371 1059.11 485.371C1060.88 485.371 1062.53 485.815 1064.05 486.704C1065.57 487.564 1066.8 488.825 1067.75 490.488C1068.69 492.122 1069.17 494.114 1069.17 496.465C1069.17 498.787 1068.69 500.779 1067.75 502.442C1066.8 504.076 1065.57 505.337 1064.05 506.226C1062.53 507.086 1060.88 507.516 1059.11 507.516ZM1059.11 503.474C1060.65 503.474 1061.87 502.829 1062.76 501.539C1063.65 500.249 1064.09 498.558 1064.09 496.465C1064.09 494.344 1063.65 492.638 1062.76 491.348C1061.87 490.058 1060.65 489.413 1059.11 489.413C1057.56 489.413 1056.34 490.058 1055.45 491.348C1054.59 492.638 1054.16 494.344 1054.16 496.465C1054.16 498.558 1054.59 500.249 1055.45 501.539C1056.34 502.829 1057.56 503.474 1059.11 503.474ZM1074.06 507V485.887H1078.15L1078.49 489.628H1078.66C1079.41 488.252 1080.31 487.206 1081.37 486.489C1082.43 485.744 1083.52 485.371 1084.64 485.371C1085.64 485.371 1086.45 485.514 1087.05 485.801L1086.19 490.101C1085.82 489.986 1085.47 489.9 1085.16 489.843C1084.84 489.786 1084.45 489.757 1083.99 489.757C1083.16 489.757 1082.29 490.087 1081.37 490.746C1080.45 491.377 1079.67 492.495 1079.01 494.1V507H1074.06ZM1090.1 507V485.887H1095.05V507H1090.1ZM1092.6 482.189C1091.71 482.189 1090.99 481.931 1090.45 481.415C1089.9 480.899 1089.63 480.211 1089.63 479.351C1089.63 478.52 1089.9 477.846 1090.45 477.33C1090.99 476.814 1091.71 476.556 1092.6 476.556C1093.49 476.556 1094.2 476.814 1094.75 477.33C1095.29 477.846 1095.56 478.52 1095.56 479.351C1095.56 480.211 1095.29 480.899 1094.75 481.415C1094.2 481.931 1093.49 482.189 1092.6 482.189ZM1099.68 507V504.334L1109.66 489.8H1100.8V485.887H1115.85V488.51L1105.91 503.044H1116.19V507H1099.68ZM1128.64 507.516C1126.9 507.516 1125.26 507.086 1123.74 506.226C1122.22 505.337 1120.99 504.076 1120.04 502.442C1119.1 500.779 1118.63 498.787 1118.63 496.465C1118.63 494.114 1119.1 492.122 1120.04 490.488C1120.99 488.825 1122.22 487.564 1123.74 486.704C1125.26 485.815 1126.9 485.371 1128.64 485.371C1130.42 485.371 1132.07 485.815 1133.59 486.704C1135.11 487.564 1136.34 488.825 1137.29 490.488C1138.23 492.122 1138.71 494.114 1138.71 496.465C1138.71 498.787 1138.23 500.779 1137.29 502.442C1136.34 504.076 1135.11 505.337 1133.59 506.226C1132.07 507.086 1130.42 507.516 1128.64 507.516ZM1128.64 503.474C1130.19 503.474 1131.41 502.829 1132.3 501.539C1133.19 500.249 1133.63 498.558 1133.63 496.465C1133.63 494.344 1133.19 492.638 1132.3 491.348C1131.41 490.058 1130.19 489.413 1128.64 489.413C1127.1 489.413 1125.88 490.058 1124.99 491.348C1124.13 492.638 1123.7 494.344 1123.7 496.465C1123.7 498.558 1124.13 500.249 1124.99 501.539C1125.88 502.829 1127.1 503.474 1128.64 503.474ZM1143.6 507V485.887H1147.69L1148.03 488.725H1148.2C1149.15 487.808 1150.18 487.019 1151.3 486.36C1152.42 485.701 1153.69 485.371 1155.12 485.371C1157.39 485.371 1159.04 486.102 1160.07 487.564C1161.1 489.026 1161.62 491.09 1161.62 493.756V507H1156.67V494.401C1156.67 492.652 1156.41 491.42 1155.9 490.703C1155.38 489.986 1154.54 489.628 1153.36 489.628C1152.44 489.628 1151.63 489.857 1150.91 490.316C1150.22 490.746 1149.43 491.391 1148.55 492.251V507H1143.6ZM1175.1 507.516C1172.66 507.516 1170.93 506.814 1169.9 505.409C1168.9 503.976 1168.39 502.127 1168.39 499.862V489.8H1165.38V486.102L1168.65 485.887L1169.25 480.125H1173.38V485.887H1178.76V489.8H1173.38V499.862C1173.38 502.327 1174.37 503.56 1176.35 503.56C1176.72 503.56 1177.11 503.517 1177.51 503.431C1177.91 503.316 1178.25 503.202 1178.54 503.087L1179.4 506.742C1178.83 506.943 1178.17 507.115 1177.42 507.258C1176.71 507.43 1175.93 507.516 1175.1 507.516ZM1187.39 507.516C1185.56 507.516 1184.05 506.943 1182.88 505.796C1181.73 504.649 1181.16 503.159 1181.16 501.324C1181.16 499.059 1182.15 497.311 1184.12 496.078C1186.1 494.817 1189.26 493.957 1193.58 493.498C1193.56 492.38 1193.26 491.42 1192.68 490.617C1192.14 489.786 1191.15 489.37 1189.71 489.37C1188.68 489.37 1187.67 489.571 1186.66 489.972C1185.69 490.373 1184.73 490.861 1183.78 491.434L1181.97 488.123C1183.15 487.378 1184.47 486.733 1185.93 486.188C1187.42 485.643 1189 485.371 1190.66 485.371C1193.3 485.371 1195.26 486.159 1196.55 487.736C1197.87 489.284 1198.53 491.534 1198.53 494.487V507H1194.44L1194.1 504.678H1193.93C1192.98 505.481 1191.97 506.154 1190.88 506.699C1189.82 507.244 1188.65 507.516 1187.39 507.516ZM1188.98 503.646C1189.84 503.646 1190.62 503.445 1191.31 503.044C1192.02 502.614 1192.78 502.041 1193.58 501.324V496.594C1190.72 496.967 1188.73 497.526 1187.61 498.271C1186.49 498.988 1185.93 499.876 1185.93 500.937C1185.93 501.883 1186.22 502.571 1186.79 503.001C1187.36 503.431 1188.1 503.646 1188.98 503.646ZM1209.26 507.516C1207.51 507.516 1206.27 506.986 1205.52 505.925C1204.81 504.864 1204.45 503.417 1204.45 501.582V476.642H1209.39V501.84C1209.39 502.442 1209.51 502.872 1209.74 503.13C1209.97 503.359 1210.21 503.474 1210.47 503.474C1210.58 503.474 1210.68 503.474 1210.77 503.474C1210.88 503.445 1211.04 503.417 1211.24 503.388L1211.89 507.086C1211.6 507.201 1211.23 507.301 1210.77 507.387C1210.34 507.473 1209.84 507.516 1209.26 507.516ZM1225.16 507V478.878H1234.02C1236.11 478.878 1237.97 479.15 1239.61 479.695C1241.24 480.24 1242.53 481.143 1243.48 482.404C1244.42 483.665 1244.9 485.385 1244.9 487.564C1244.9 489.628 1244.42 491.334 1243.48 492.681C1242.53 494.028 1241.26 495.032 1239.65 495.691C1238.05 496.35 1236.23 496.68 1234.19 496.68H1230.15V507H1225.16ZM1230.15 492.681H1233.8C1237.93 492.681 1239.99 490.975 1239.99 487.564C1239.99 485.787 1239.45 484.568 1238.36 483.909C1237.3 483.221 1235.72 482.877 1233.63 482.877H1230.15V492.681ZM1253.24 507.516C1251.4 507.516 1249.9 506.943 1248.72 505.796C1247.57 504.649 1247 503.159 1247 501.324C1247 499.059 1247.99 497.311 1249.97 496.078C1251.95 494.817 1255.1 493.957 1259.43 493.498C1259.4 492.38 1259.1 491.42 1258.53 490.617C1257.98 489.786 1256.99 489.37 1255.56 489.37C1254.53 489.37 1253.51 489.571 1252.51 489.972C1251.53 490.373 1250.57 490.861 1249.62 491.434L1247.82 488.123C1248.99 487.378 1250.31 486.733 1251.77 486.188C1253.27 485.643 1254.84 485.371 1256.5 485.371C1259.14 485.371 1261.11 486.159 1262.4 487.736C1263.71 489.284 1264.37 491.534 1264.37 494.487V507H1260.29L1259.94 504.678H1259.77C1258.83 505.481 1257.81 506.154 1256.72 506.699C1255.66 507.244 1254.5 507.516 1253.24 507.516ZM1254.83 503.646C1255.69 503.646 1256.46 503.445 1257.15 503.044C1257.87 502.614 1258.63 502.041 1259.43 501.324V496.594C1256.56 496.967 1254.57 497.526 1253.45 498.271C1252.33 498.988 1251.77 499.876 1251.77 500.937C1251.77 501.883 1252.06 502.571 1252.63 503.001C1253.21 503.431 1253.94 503.646 1254.83 503.646ZM1276.18 507.516C1274.75 507.516 1273.32 507.244 1271.88 506.699C1270.45 506.126 1269.22 505.423 1268.18 504.592L1270.51 501.41C1271.45 502.127 1272.4 502.7 1273.34 503.13C1274.29 503.56 1275.29 503.775 1276.35 503.775C1277.5 503.775 1278.35 503.531 1278.89 503.044C1279.44 502.557 1279.71 501.955 1279.71 501.238C1279.71 500.636 1279.48 500.149 1279.02 499.776C1278.59 499.375 1278.03 499.031 1277.34 498.744C1276.66 498.429 1275.94 498.128 1275.19 497.841C1274.28 497.497 1273.36 497.081 1272.44 496.594C1271.55 496.078 1270.82 495.433 1270.25 494.659C1269.68 493.856 1269.39 492.867 1269.39 491.692C1269.39 489.829 1270.08 488.309 1271.45 487.134C1272.83 485.959 1274.69 485.371 1277.04 485.371C1278.53 485.371 1279.87 485.629 1281.04 486.145C1282.22 486.661 1283.23 487.249 1284.09 487.908L1281.82 490.918C1281.07 490.373 1280.31 489.943 1279.54 489.628C1278.79 489.284 1278 489.112 1277.17 489.112C1276.11 489.112 1275.32 489.341 1274.81 489.8C1274.29 490.23 1274.03 490.775 1274.03 491.434C1274.03 492.265 1274.46 492.896 1275.32 493.326C1276.18 493.756 1277.19 494.172 1278.33 494.573C1279.31 494.917 1280.25 495.347 1281.17 495.863C1282.09 496.35 1282.85 496.995 1283.45 497.798C1284.08 498.601 1284.4 499.661 1284.4 500.98C1284.4 502.786 1283.69 504.334 1282.29 505.624C1280.88 506.885 1278.85 507.516 1276.18 507.516ZM1294.7 507.516C1293.27 507.516 1291.83 507.244 1290.4 506.699C1288.97 506.126 1287.73 505.423 1286.7 504.592L1289.02 501.41C1289.97 502.127 1290.92 502.7 1291.86 503.13C1292.81 503.56 1293.81 503.775 1294.87 503.775C1296.02 503.775 1296.87 503.531 1297.41 503.044C1297.95 502.557 1298.23 501.955 1298.23 501.238C1298.23 500.636 1298 500.149 1297.54 499.776C1297.11 499.375 1296.55 499.031 1295.86 498.744C1295.17 498.429 1294.46 498.128 1293.71 497.841C1292.79 497.497 1291.88 497.081 1290.96 496.594C1290.07 496.078 1289.34 495.433 1288.77 494.659C1288.19 493.856 1287.91 492.867 1287.91 491.692C1287.91 489.829 1288.59 488.309 1289.97 487.134C1291.35 485.959 1293.21 485.371 1295.56 485.371C1297.05 485.371 1298.38 485.629 1299.56 486.145C1300.74 486.661 1301.75 487.249 1302.61 487.908L1300.33 490.918C1299.59 490.373 1298.83 489.943 1298.05 489.628C1297.31 489.284 1296.52 489.112 1295.69 489.112C1294.63 489.112 1293.84 489.341 1293.32 489.8C1292.81 490.23 1292.55 490.775 1292.55 491.434C1292.55 492.265 1292.98 492.896 1293.84 493.326C1294.7 493.756 1295.7 494.172 1296.85 494.573C1297.83 494.917 1298.77 495.347 1299.69 495.863C1300.61 496.35 1301.37 496.995 1301.97 497.798C1302.6 498.601 1302.91 499.661 1302.91 500.98C1302.91 502.786 1302.21 504.334 1300.81 505.624C1299.4 506.885 1297.37 507.516 1294.7 507.516Z" fill="white"/>
<rect x="1495" y="425" width="459" height="134" rx="60" fill="#490952"/>
<path d="M1617.37 507L1608.6 478.878H1613.89L1617.84 493.025C1618.3 494.602 1618.72 496.121 1619.09 497.583C1619.46 499.045 1619.88 500.579 1620.34 502.184H1620.51C1621 500.579 1621.41 499.045 1621.76 497.583C1622.13 496.121 1622.53 494.602 1622.96 493.025L1626.87 478.878H1631.99L1623.26 507H1617.37ZM1643.28 507.516C1641.33 507.516 1639.57 507.086 1637.99 506.226C1636.41 505.337 1635.17 504.076 1634.25 502.442C1633.33 500.779 1632.87 498.787 1632.87 496.465C1632.87 494.172 1633.33 492.194 1634.25 490.531C1635.19 488.868 1636.41 487.593 1637.9 486.704C1639.39 485.815 1640.96 485.371 1642.59 485.371C1644.51 485.371 1646.12 485.801 1647.41 486.661C1648.7 487.492 1649.67 488.668 1650.33 490.187C1650.99 491.678 1651.32 493.412 1651.32 495.39C1651.32 496.422 1651.25 497.225 1651.1 497.798H1637.69C1637.92 499.661 1638.59 501.109 1639.71 502.141C1640.83 503.173 1642.23 503.689 1643.92 503.689C1644.84 503.689 1645.69 503.56 1646.46 503.302C1647.26 503.015 1648.05 502.628 1648.83 502.141L1650.5 505.237C1649.5 505.896 1648.38 506.441 1647.15 506.871C1645.92 507.301 1644.63 507.516 1643.28 507.516ZM1637.65 494.444H1647.02C1647.02 492.81 1646.66 491.534 1645.94 490.617C1645.23 489.671 1644.15 489.198 1642.72 489.198C1641.49 489.198 1640.38 489.657 1639.41 490.574C1638.46 491.463 1637.87 492.753 1637.65 494.444ZM1656.04 507V485.887H1660.13L1660.47 489.628H1660.64C1661.39 488.252 1662.29 487.206 1663.35 486.489C1664.41 485.744 1665.5 485.371 1666.62 485.371C1667.62 485.371 1668.43 485.514 1669.03 485.801L1668.17 490.101C1667.8 489.986 1667.45 489.9 1667.14 489.843C1666.82 489.786 1666.43 489.757 1665.98 489.757C1665.14 489.757 1664.27 490.087 1663.35 490.746C1662.43 491.377 1661.65 492.495 1660.99 494.1V507H1656.04ZM1679.52 507.516C1677.09 507.516 1675.35 506.814 1674.32 505.409C1673.32 503.976 1672.81 502.127 1672.81 499.862V489.8H1669.8V486.102L1673.07 485.887L1673.67 480.125H1677.8V485.887H1683.18V489.8H1677.8V499.862C1677.8 502.327 1678.79 503.56 1680.77 503.56C1681.14 503.56 1681.53 503.517 1681.93 503.431C1682.33 503.316 1682.68 503.202 1682.96 503.087L1683.82 506.742C1683.25 506.943 1682.59 507.115 1681.84 507.258C1681.13 507.43 1680.35 507.516 1679.52 507.516ZM1687.62 507V485.887H1692.57V507H1687.62ZM1690.11 482.189C1689.23 482.189 1688.51 481.931 1687.96 481.415C1687.42 480.899 1687.15 480.211 1687.15 479.351C1687.15 478.52 1687.42 477.846 1687.96 477.33C1688.51 476.814 1689.23 476.556 1690.11 476.556C1691 476.556 1691.72 476.814 1692.26 477.33C1692.81 477.846 1693.08 478.52 1693.08 479.351C1693.08 480.211 1692.81 480.899 1692.26 481.415C1691.72 481.931 1691 482.189 1690.11 482.189ZM1707.69 507.516C1705.77 507.516 1704.03 507.086 1702.49 506.226C1700.97 505.337 1699.75 504.076 1698.83 502.442C1697.94 500.779 1697.5 498.787 1697.5 496.465C1697.5 494.114 1697.99 492.122 1698.96 490.488C1699.94 488.825 1701.23 487.564 1702.83 486.704C1704.46 485.815 1706.21 485.371 1708.08 485.371C1709.42 485.371 1710.6 485.6 1711.6 486.059C1712.61 486.518 1713.49 487.077 1714.27 487.736L1711.86 490.961C1711.32 490.474 1710.76 490.101 1710.18 489.843C1709.61 489.556 1708.99 489.413 1708.33 489.413C1706.64 489.413 1705.25 490.058 1704.16 491.348C1703.1 492.638 1702.57 494.344 1702.57 496.465C1702.57 498.558 1703.09 500.249 1704.12 501.539C1705.18 502.829 1706.54 503.474 1708.21 503.474C1709.04 503.474 1709.81 503.302 1710.53 502.958C1711.27 502.585 1711.95 502.155 1712.55 501.668L1714.57 504.936C1713.59 505.796 1712.51 506.441 1711.3 506.871C1710.1 507.301 1708.89 507.516 1707.69 507.516ZM1723.43 507.516C1721.6 507.516 1720.09 506.943 1718.92 505.796C1717.77 504.649 1717.2 503.159 1717.2 501.324C1717.2 499.059 1718.19 497.311 1720.17 496.078C1722.14 494.817 1725.3 493.957 1729.63 493.498C1729.6 492.38 1729.3 491.42 1728.72 490.617C1728.18 489.786 1727.19 489.37 1725.76 489.37C1724.72 489.37 1723.71 489.571 1722.7 489.972C1721.73 490.373 1720.77 490.861 1719.82 491.434L1718.02 488.123C1719.19 487.378 1720.51 486.733 1721.97 486.188C1723.46 485.643 1725.04 485.371 1726.7 485.371C1729.34 485.371 1731.3 486.159 1732.59 487.736C1733.91 489.284 1734.57 491.534 1734.57 494.487V507H1730.49L1730.14 504.678H1729.97C1729.02 505.481 1728.01 506.154 1726.92 506.699C1725.86 507.244 1724.7 507.516 1723.43 507.516ZM1725.02 503.646C1725.88 503.646 1726.66 503.445 1727.35 503.044C1728.06 502.614 1728.82 502.041 1729.63 501.324V496.594C1726.76 496.967 1724.77 497.526 1723.65 498.271C1722.53 498.988 1721.97 499.876 1721.97 500.937C1721.97 501.883 1722.26 502.571 1722.83 503.001C1723.41 503.431 1724.14 503.646 1725.02 503.646ZM1745.3 507.516C1743.56 507.516 1742.31 506.986 1741.56 505.925C1740.85 504.864 1740.49 503.417 1740.49 501.582V476.642H1745.43V501.84C1745.43 502.442 1745.55 502.872 1745.78 503.13C1746.01 503.359 1746.25 503.474 1746.51 503.474C1746.62 503.474 1746.72 503.474 1746.81 503.474C1746.92 503.445 1747.08 503.417 1747.28 503.388L1747.93 507.086C1747.64 507.201 1747.27 507.301 1746.81 507.387C1746.38 507.473 1745.88 507.516 1745.3 507.516ZM1761.2 507V478.878H1770.06C1772.15 478.878 1774.01 479.15 1775.65 479.695C1777.28 480.24 1778.57 481.143 1779.52 482.404C1780.46 483.665 1780.94 485.385 1780.94 487.564C1780.94 489.628 1780.46 491.334 1779.52 492.681C1778.57 494.028 1777.3 495.032 1775.69 495.691C1774.09 496.35 1772.27 496.68 1770.23 496.68H1766.19V507H1761.2ZM1766.19 492.681H1769.84C1773.97 492.681 1776.04 490.975 1776.04 487.564C1776.04 485.787 1775.49 484.568 1774.4 483.909C1773.34 483.221 1771.76 482.877 1769.67 482.877H1766.19V492.681ZM1789.28 507.516C1787.44 507.516 1785.94 506.943 1784.76 505.796C1783.62 504.649 1783.04 503.159 1783.04 501.324C1783.04 499.059 1784.03 497.311 1786.01 496.078C1787.99 494.817 1791.14 493.957 1795.47 493.498C1795.44 492.38 1795.14 491.42 1794.57 490.617C1794.02 489.786 1793.03 489.37 1791.6 489.37C1790.57 489.37 1789.55 489.571 1788.55 489.972C1787.57 490.373 1786.61 490.861 1785.67 491.434L1783.86 488.123C1785.03 487.378 1786.35 486.733 1787.82 486.188C1789.31 485.643 1790.88 485.371 1792.55 485.371C1795.18 485.371 1797.15 486.159 1798.44 487.736C1799.76 489.284 1800.41 491.534 1800.41 494.487V507H1796.33L1795.99 504.678H1795.81C1794.87 505.481 1793.85 506.154 1792.76 506.699C1791.7 507.244 1790.54 507.516 1789.28 507.516ZM1790.87 503.646C1791.73 503.646 1792.5 503.445 1793.19 503.044C1793.91 502.614 1794.67 502.041 1795.47 501.324V496.594C1792.6 496.967 1790.61 497.526 1789.49 498.271C1788.37 498.988 1787.82 499.876 1787.82 500.937C1787.82 501.883 1788.1 502.571 1788.68 503.001C1789.25 503.431 1789.98 503.646 1790.87 503.646ZM1812.22 507.516C1810.79 507.516 1809.36 507.244 1807.92 506.699C1806.49 506.126 1805.26 505.423 1804.23 504.592L1806.55 501.41C1807.49 502.127 1808.44 502.7 1809.39 503.13C1810.33 503.56 1811.33 503.775 1812.4 503.775C1813.54 503.775 1814.39 503.531 1814.93 503.044C1815.48 502.557 1815.75 501.955 1815.75 501.238C1815.75 500.636 1815.52 500.149 1815.06 499.776C1814.63 499.375 1814.07 499.031 1813.38 498.744C1812.7 498.429 1811.98 498.128 1811.23 497.841C1810.32 497.497 1809.4 497.081 1808.48 496.594C1807.59 496.078 1806.86 495.433 1806.29 494.659C1805.72 493.856 1805.43 492.867 1805.43 491.692C1805.43 489.829 1806.12 488.309 1807.49 487.134C1808.87 485.959 1810.73 485.371 1813.08 485.371C1814.57 485.371 1815.91 485.629 1817.08 486.145C1818.26 486.661 1819.28 487.249 1820.14 487.908L1817.86 490.918C1817.11 490.373 1816.35 489.943 1815.58 489.628C1814.83 489.284 1814.04 489.112 1813.21 489.112C1812.15 489.112 1811.36 489.341 1810.85 489.8C1810.33 490.23 1810.07 490.775 1810.07 491.434C1810.07 492.265 1810.5 492.896 1811.36 493.326C1812.22 493.756 1813.23 494.172 1814.37 494.573C1815.35 494.917 1816.29 495.347 1817.21 495.863C1818.13 496.35 1818.89 496.995 1819.49 497.798C1820.12 498.601 1820.44 499.661 1820.44 500.98C1820.44 502.786 1819.73 504.334 1818.33 505.624C1816.92 506.885 1814.89 507.516 1812.22 507.516ZM1830.74 507.516C1829.31 507.516 1827.88 507.244 1826.44 506.699C1825.01 506.126 1823.78 505.423 1822.74 504.592L1825.07 501.41C1826.01 502.127 1826.96 502.7 1827.9 503.13C1828.85 503.56 1829.85 503.775 1830.91 503.775C1832.06 503.775 1832.91 503.531 1833.45 503.044C1834 502.557 1834.27 501.955 1834.27 501.238C1834.27 500.636 1834.04 500.149 1833.58 499.776C1833.15 499.375 1832.59 499.031 1831.9 498.744C1831.21 498.429 1830.5 498.128 1829.75 497.841C1828.84 497.497 1827.92 497.081 1827 496.594C1826.11 496.078 1825.38 495.433 1824.81 494.659C1824.23 493.856 1823.95 492.867 1823.95 491.692C1823.95 489.829 1824.64 488.309 1826.01 487.134C1827.39 485.959 1829.25 485.371 1831.6 485.371C1833.09 485.371 1834.43 485.629 1835.6 486.145C1836.78 486.661 1837.79 487.249 1838.65 487.908L1836.37 490.918C1835.63 490.373 1834.87 489.943 1834.1 489.628C1833.35 489.284 1832.56 489.112 1831.73 489.112C1830.67 489.112 1829.88 489.341 1829.37 489.8C1828.85 490.23 1828.59 490.775 1828.59 491.434C1828.59 492.265 1829.02 492.896 1829.88 493.326C1830.74 493.756 1831.75 494.172 1832.89 494.573C1833.87 494.917 1834.81 495.347 1835.73 495.863C1836.65 496.35 1837.41 496.995 1838.01 497.798C1838.64 498.601 1838.95 499.661 1838.95 500.98C1838.95 502.786 1838.25 504.334 1836.85 505.624C1835.44 506.885 1833.41 507.516 1830.74 507.516Z" fill="white"/>
<rect x="89" y="394" width="274" height="196" rx="60" fill="#524809"/>
<path d="M191.503 507V478.878H200.361C202.454 478.878 204.317 479.15 205.951 479.695C207.585 480.24 208.875 481.143 209.821 482.404C210.767 483.665 211.24 485.385 211.24 487.564C211.24 489.628 210.767 491.334 209.821 492.681C208.875 494.028 207.599 495.032 205.994 495.691C204.389 496.35 202.568 496.68 200.533 496.68H196.491V507H191.503ZM196.491 492.681H200.146C204.274 492.681 206.338 490.975 206.338 487.564C206.338 485.787 205.793 484.568 204.704 483.909C203.643 483.221 202.067 482.877 199.974 482.877H196.491V492.681ZM216.53 507V478.878H225.517C227.467 478.878 229.187 479.093 230.677 479.523C232.197 479.953 233.386 480.684 234.246 481.716C235.135 482.719 235.579 484.081 235.579 485.801C235.579 487.12 235.235 488.367 234.547 489.542C233.859 490.689 232.899 491.477 231.666 491.907V492.079C233.214 492.423 234.49 493.154 235.493 494.272C236.525 495.361 237.041 496.852 237.041 498.744C237.041 500.607 236.568 502.155 235.622 503.388C234.705 504.621 233.429 505.538 231.795 506.14C230.161 506.713 228.312 507 226.248 507H216.53ZM221.518 490.488H225.087C227.037 490.488 228.456 490.13 229.344 489.413C230.233 488.696 230.677 487.736 230.677 486.532C230.677 485.156 230.219 484.181 229.301 483.608C228.384 483.035 227.008 482.748 225.173 482.748H221.518V490.488ZM221.518 503.13H225.732C227.796 503.13 229.387 502.757 230.505 502.012C231.623 501.238 232.182 500.063 232.182 498.486C232.182 496.995 231.638 495.92 230.548 495.261C229.459 494.573 227.854 494.229 225.732 494.229H221.518V503.13ZM242.188 507V478.878H251.691C253.64 478.878 255.389 479.136 256.937 479.652C258.513 480.168 259.746 481.042 260.635 482.275C261.552 483.479 262.011 485.127 262.011 487.22C262.011 489.37 261.495 491.104 260.463 492.423C259.459 493.742 258.112 494.688 256.421 495.261L263.129 507H257.539L251.476 495.992H247.176V507H242.188ZM247.176 492.036H251.175C253.095 492.036 254.557 491.635 255.561 490.832C256.593 490.001 257.109 488.797 257.109 487.22C257.109 485.615 256.593 484.497 255.561 483.866C254.557 483.207 253.095 482.877 251.175 482.877H247.176V492.036Z" fill="white"/>
<rect x="2342" y="394" width="454" height="196" rx="60" fill="#A05704"/>
<path d="M2526.53 480V451.878H2543.51V456.092H2531.52V464.047H2541.75V468.261H2531.52V480H2526.53ZM2548.02 480V458.887H2552.96V480H2548.02ZM2550.51 455.189C2549.62 455.189 2548.91 454.931 2548.36 454.415C2547.82 453.899 2547.55 453.211 2547.55 452.351C2547.55 451.52 2547.82 450.846 2548.36 450.33C2548.91 449.814 2549.62 449.556 2550.51 449.556C2551.4 449.556 2552.12 449.814 2552.66 450.33C2553.21 450.846 2553.48 451.52 2553.48 452.351C2553.48 453.211 2553.21 453.899 2552.66 454.415C2552.12 454.931 2551.4 455.189 2550.51 455.189ZM2559.27 480V458.887H2563.36L2563.7 461.725H2563.87C2564.82 460.808 2565.85 460.019 2566.97 459.36C2568.09 458.701 2569.36 458.371 2570.8 458.371C2573.06 458.371 2574.71 459.102 2575.74 460.564C2576.77 462.026 2577.29 464.09 2577.29 466.756V480H2572.34V467.401C2572.34 465.652 2572.09 464.42 2571.57 463.703C2571.05 462.986 2570.21 462.628 2569.03 462.628C2568.12 462.628 2567.3 462.857 2566.58 463.316C2565.89 463.746 2565.11 464.391 2564.22 465.251V480H2559.27ZM2588.45 480.516C2586.62 480.516 2585.11 479.943 2583.94 478.796C2582.79 477.649 2582.22 476.159 2582.22 474.324C2582.22 472.059 2583.2 470.311 2585.18 469.078C2587.16 467.817 2590.31 466.957 2594.64 466.498C2594.61 465.38 2594.31 464.42 2593.74 463.617C2593.2 462.786 2592.21 462.37 2590.77 462.37C2589.74 462.37 2588.72 462.571 2587.72 462.972C2586.75 463.373 2585.78 463.861 2584.84 464.434L2583.03 461.123C2584.21 460.378 2585.53 459.733 2586.99 459.188C2588.48 458.643 2590.06 458.371 2591.72 458.371C2594.36 458.371 2596.32 459.159 2597.61 460.736C2598.93 462.284 2599.59 464.534 2599.59 467.487V480H2595.5L2595.16 477.678H2594.99C2594.04 478.481 2593.02 479.154 2591.93 479.699C2590.87 480.244 2589.71 480.516 2588.45 480.516ZM2590.04 476.646C2590.9 476.646 2591.68 476.445 2592.36 476.044C2593.08 475.614 2593.84 475.041 2594.64 474.324V469.594C2591.78 469.967 2589.78 470.526 2588.67 471.271C2587.55 471.988 2586.99 472.876 2586.99 473.937C2586.99 474.883 2587.28 475.571 2587.85 476.001C2588.42 476.431 2589.15 476.646 2590.04 476.646ZM2610.32 480.516C2608.57 480.516 2607.33 479.986 2606.58 478.925C2605.86 477.864 2605.51 476.417 2605.51 474.582V449.642H2610.45V474.84C2610.45 475.442 2610.57 475.872 2610.79 476.13C2611.02 476.359 2611.27 476.474 2611.53 476.474C2611.64 476.474 2611.74 476.474 2611.83 476.474C2611.94 476.445 2612.1 476.417 2612.3 476.388L2612.94 480.086C2612.66 480.201 2612.29 480.301 2611.83 480.387C2611.4 480.473 2610.9 480.516 2610.32 480.516ZM2465.02 534.516C2462.67 534.516 2460.53 533.957 2458.61 532.839C2456.69 531.721 2455.16 530.087 2454.01 527.937C2452.9 525.758 2452.34 523.121 2452.34 520.025C2452.34 516.958 2452.91 514.335 2454.06 512.156C2455.23 509.949 2456.79 508.272 2458.74 507.125C2460.69 505.95 2462.84 505.362 2465.19 505.362C2466.97 505.362 2468.55 505.72 2469.92 506.437C2471.3 507.154 2472.43 507.985 2473.32 508.931L2470.65 512.156C2469.94 511.411 2469.13 510.823 2468.25 510.393C2467.39 509.934 2466.41 509.705 2465.32 509.705C2463.8 509.705 2462.44 510.121 2461.24 510.952C2460.06 511.755 2459.13 512.916 2458.44 514.435C2457.78 515.954 2457.45 517.775 2457.45 519.896C2457.45 523.107 2458.16 525.629 2459.56 527.464C2460.96 529.27 2462.84 530.173 2465.19 530.173C2466.45 530.173 2467.57 529.915 2468.55 529.399C2469.52 528.854 2470.41 528.152 2471.21 527.292L2473.88 530.431C2472.73 531.75 2471.41 532.767 2469.92 533.484C2468.46 534.172 2466.83 534.516 2465.02 534.516ZM2486.79 534.516C2485.04 534.516 2483.4 534.086 2481.88 533.226C2480.37 532.337 2479.13 531.076 2478.19 529.442C2477.24 527.779 2476.77 525.787 2476.77 523.465C2476.77 521.114 2477.24 519.122 2478.19 517.488C2479.13 515.825 2480.37 514.564 2481.88 513.704C2483.4 512.815 2485.04 512.371 2486.79 512.371C2488.56 512.371 2490.21 512.815 2491.73 513.704C2493.25 514.564 2494.48 515.825 2495.43 517.488C2496.38 519.122 2496.85 521.114 2496.85 523.465C2496.85 525.787 2496.38 527.779 2495.43 529.442C2494.48 531.076 2493.25 532.337 2491.73 533.226C2490.21 534.086 2488.56 534.516 2486.79 534.516ZM2486.79 530.474C2488.33 530.474 2489.55 529.829 2490.44 528.539C2491.33 527.249 2491.77 525.558 2491.77 523.465C2491.77 521.344 2491.33 519.638 2490.44 518.348C2489.55 517.058 2488.33 516.413 2486.79 516.413C2485.24 516.413 2484.02 517.058 2483.13 518.348C2482.27 519.638 2481.84 521.344 2481.84 523.465C2481.84 525.558 2482.27 527.249 2483.13 528.539C2484.02 529.829 2485.24 530.474 2486.79 530.474ZM2501.74 534V512.887H2505.83L2506.17 515.768H2506.34C2507.23 514.822 2508.19 514.019 2509.23 513.36C2510.29 512.701 2511.48 512.371 2512.79 512.371C2514.34 512.371 2515.57 512.715 2516.49 513.403C2517.44 514.062 2518.15 514.98 2518.64 516.155C2519.65 515.066 2520.69 514.163 2521.78 513.446C2522.9 512.729 2524.12 512.371 2525.44 512.371C2527.67 512.371 2529.32 513.102 2530.38 514.564C2531.44 516.026 2531.97 518.09 2531.97 520.756V534H2526.98V521.401C2526.98 519.652 2526.71 518.42 2526.17 517.703C2525.65 516.986 2524.85 516.628 2523.76 516.628C2522.44 516.628 2520.96 517.502 2519.33 519.251V534H2514.39V521.401C2514.39 519.652 2514.11 518.42 2513.57 517.703C2513.05 516.986 2512.24 516.628 2511.12 516.628C2509.8 516.628 2508.32 517.502 2506.69 519.251V534H2501.74ZM2537.98 542.342V512.887H2542.07L2542.41 515.123H2542.58C2543.47 514.378 2544.46 513.733 2545.55 513.188C2546.67 512.643 2547.8 512.371 2548.95 512.371C2551.58 512.371 2553.62 513.346 2555.05 515.295C2556.52 517.244 2557.25 519.853 2557.25 523.121C2557.25 525.529 2556.82 527.593 2555.96 529.313C2555.1 531.004 2553.98 532.294 2552.6 533.183C2551.25 534.072 2549.79 534.516 2548.22 534.516C2547.3 534.516 2546.38 534.315 2545.46 533.914C2544.55 533.484 2543.66 532.911 2542.8 532.194L2542.93 535.72V542.342H2537.98ZM2547.18 530.431C2548.59 530.431 2549.76 529.815 2550.71 528.582C2551.66 527.349 2552.13 525.543 2552.13 523.164C2552.13 521.043 2551.77 519.394 2551.05 518.219C2550.34 517.044 2549.18 516.456 2547.57 516.456C2546.08 516.456 2544.53 517.244 2542.93 518.821V528.668C2543.7 529.299 2544.45 529.757 2545.16 530.044C2545.88 530.302 2546.55 530.431 2547.18 530.431ZM2570.9 534.516C2569.15 534.516 2567.51 534.086 2565.99 533.226C2564.48 532.337 2563.24 531.076 2562.3 529.442C2561.35 527.779 2560.88 525.787 2560.88 523.465C2560.88 521.114 2561.35 519.122 2562.3 517.488C2563.24 515.825 2564.48 514.564 2565.99 513.704C2567.51 512.815 2569.15 512.371 2570.9 512.371C2572.67 512.371 2574.32 512.815 2575.84 513.704C2577.36 514.564 2578.59 515.825 2579.54 517.488C2580.49 519.122 2580.96 521.114 2580.96 523.465C2580.96 525.787 2580.49 527.779 2579.54 529.442C2578.59 531.076 2577.36 532.337 2575.84 533.226C2574.32 534.086 2572.67 534.516 2570.9 534.516ZM2570.9 530.474C2572.44 530.474 2573.66 529.829 2574.55 528.539C2575.44 527.249 2575.88 525.558 2575.88 523.465C2575.88 521.344 2575.44 519.638 2574.55 518.348C2573.66 517.058 2572.44 516.413 2570.9 516.413C2569.35 516.413 2568.13 517.058 2567.24 518.348C2566.38 519.638 2565.95 521.344 2565.95 523.465C2565.95 525.558 2566.38 527.249 2567.24 528.539C2568.13 529.829 2569.35 530.474 2570.9 530.474ZM2591.58 534.516C2590.14 534.516 2588.71 534.244 2587.28 533.699C2585.84 533.126 2584.61 532.423 2583.58 531.592L2585.9 528.41C2586.85 529.127 2587.79 529.7 2588.74 530.13C2589.68 530.56 2590.69 530.775 2591.75 530.775C2592.9 530.775 2593.74 530.531 2594.29 530.044C2594.83 529.557 2595.1 528.955 2595.1 528.238C2595.1 527.636 2594.87 527.149 2594.41 526.776C2593.98 526.375 2593.43 526.031 2592.74 525.744C2592.05 525.429 2591.33 525.128 2590.59 524.841C2589.67 524.497 2588.75 524.081 2587.84 523.594C2586.95 523.078 2586.22 522.433 2585.64 521.659C2585.07 520.856 2584.78 519.867 2584.78 518.692C2584.78 516.829 2585.47 515.309 2586.85 514.134C2588.22 512.959 2590.09 512.371 2592.44 512.371C2593.93 512.371 2595.26 512.629 2596.44 513.145C2597.61 513.661 2598.63 514.249 2599.49 514.908L2597.21 517.918C2596.46 517.373 2595.7 516.943 2594.93 516.628C2594.19 516.284 2593.4 516.112 2592.57 516.112C2591.5 516.112 2590.72 516.341 2590.2 516.8C2589.68 517.23 2589.43 517.775 2589.43 518.434C2589.43 519.265 2589.86 519.896 2590.72 520.326C2591.58 520.756 2592.58 521.172 2593.73 521.573C2594.7 521.917 2595.65 522.347 2596.56 522.863C2597.48 523.35 2598.24 523.995 2598.84 524.798C2599.47 525.601 2599.79 526.661 2599.79 527.98C2599.79 529.786 2599.09 531.334 2597.68 532.624C2596.28 533.885 2594.24 534.516 2591.58 534.516ZM2604.2 534V512.887H2609.15V534H2604.2ZM2606.7 509.189C2605.81 509.189 2605.09 508.931 2604.55 508.415C2604 507.899 2603.73 507.211 2603.73 506.351C2603.73 505.52 2604 504.846 2604.55 504.33C2605.09 503.814 2605.81 503.556 2606.7 503.556C2607.59 503.556 2608.3 503.814 2608.85 504.33C2609.39 504.846 2609.66 505.52 2609.66 506.351C2609.66 507.211 2609.39 507.899 2608.85 508.415C2608.3 508.931 2607.59 509.189 2606.7 509.189ZM2622.9 534.516C2620.46 534.516 2618.73 533.814 2617.69 532.409C2616.69 530.976 2616.19 529.127 2616.19 526.862V516.8H2613.18V513.102L2616.45 512.887L2617.05 507.125H2621.18V512.887H2626.55V516.8H2621.18V526.862C2621.18 529.327 2622.17 530.56 2624.14 530.56C2624.52 530.56 2624.9 530.517 2625.3 530.431C2625.71 530.316 2626.05 530.202 2626.34 530.087L2627.2 533.742C2626.62 533.943 2625.96 534.115 2625.22 534.258C2624.5 534.43 2623.73 534.516 2622.9 534.516ZM2630.99 534V512.887H2635.94V534H2630.99ZM2633.49 509.189C2632.6 509.189 2631.88 508.931 2631.34 508.415C2630.79 507.899 2630.52 507.211 2630.52 506.351C2630.52 505.52 2630.79 504.846 2631.34 504.33C2631.88 503.814 2632.6 503.556 2633.49 503.556C2634.38 503.556 2635.09 503.814 2635.64 504.33C2636.18 504.846 2636.46 505.52 2636.46 506.351C2636.46 507.211 2636.18 507.899 2635.64 508.415C2635.09 508.931 2634.38 509.189 2633.49 509.189ZM2650.89 534.516C2649.14 534.516 2647.51 534.086 2645.99 533.226C2644.47 532.337 2643.24 531.076 2642.29 529.442C2641.35 527.779 2640.87 525.787 2640.87 523.465C2640.87 521.114 2641.35 519.122 2642.29 517.488C2643.24 515.825 2644.47 514.564 2645.99 513.704C2647.51 512.815 2649.14 512.371 2650.89 512.371C2652.67 512.371 2654.32 512.815 2655.84 513.704C2657.36 514.564 2658.59 515.825 2659.53 517.488C2660.48 519.122 2660.95 521.114 2660.95 523.465C2660.95 525.787 2660.48 527.779 2659.53 529.442C2658.59 531.076 2657.36 532.337 2655.84 533.226C2654.32 534.086 2652.67 534.516 2650.89 534.516ZM2650.89 530.474C2652.44 530.474 2653.66 529.829 2654.55 528.539C2655.44 527.249 2655.88 525.558 2655.88 523.465C2655.88 521.344 2655.44 519.638 2654.55 518.348C2653.66 517.058 2652.44 516.413 2650.89 516.413C2649.34 516.413 2648.13 517.058 2647.24 518.348C2646.38 519.638 2645.95 521.344 2645.95 523.465C2645.95 525.558 2646.38 527.249 2647.24 528.539C2648.13 529.829 2649.34 530.474 2650.89 530.474ZM2665.85 534V512.887H2669.93L2670.28 515.725H2670.45C2671.4 514.808 2672.43 514.019 2673.55 513.36C2674.66 512.701 2675.94 512.371 2677.37 512.371C2679.64 512.371 2681.29 513.102 2682.32 514.564C2683.35 516.026 2683.87 518.09 2683.87 520.756V534H2678.92V521.401C2678.92 519.652 2678.66 518.42 2678.15 517.703C2677.63 516.986 2676.78 516.628 2675.61 516.628C2674.69 516.628 2673.88 516.857 2673.16 517.316C2672.47 517.746 2671.68 518.391 2670.79 519.251V534H2665.85Z" fill="white"/>
<rect x="554" y="138" width="274" height="134" rx="60" fill="#2A3837"/>
<path d="M622.852 220.516C620.874 220.516 619.039 220.143 617.348 219.398C615.656 218.624 614.194 217.606 612.962 216.345L615.112 213.851C616.115 214.912 617.29 215.772 618.638 216.431C620.014 217.062 621.433 217.377 622.895 217.377C624.758 217.377 626.206 216.961 627.238 216.13C628.27 215.27 628.786 214.152 628.786 212.776C628.786 211.801 628.571 211.027 628.141 210.454C627.739 209.881 627.18 209.393 626.464 208.992C625.776 208.591 624.987 208.189 624.099 207.788L620.057 206.025C619.168 205.652 618.279 205.165 617.391 204.563C616.531 203.961 615.8 203.187 615.198 202.241C614.624 201.295 614.338 200.134 614.338 198.758C614.338 197.325 614.71 196.049 615.456 194.931C616.23 193.784 617.29 192.896 618.638 192.265C619.985 191.606 621.504 191.276 623.196 191.276C624.887 191.276 626.449 191.606 627.883 192.265C629.316 192.896 630.534 193.727 631.538 194.759L629.603 197.081C628.743 196.25 627.782 195.605 626.722 195.146C625.69 194.659 624.514 194.415 623.196 194.415C621.619 194.415 620.343 194.788 619.369 195.533C618.423 196.278 617.95 197.282 617.95 198.543C617.95 199.432 618.179 200.177 618.638 200.779C619.125 201.352 619.727 201.825 620.444 202.198C621.16 202.571 621.891 202.915 622.637 203.23L626.636 204.95C627.725 205.409 628.7 205.968 629.56 206.627C630.448 207.258 631.151 208.046 631.667 208.992C632.183 209.909 632.441 211.07 632.441 212.475C632.441 213.966 632.054 215.327 631.28 216.56C630.506 217.764 629.402 218.724 627.969 219.441C626.535 220.158 624.83 220.516 622.852 220.516ZM637.651 228.815V199.102H640.575L640.876 201.51H641.005C641.951 200.707 642.983 200.019 644.101 199.446C645.248 198.873 646.438 198.586 647.67 198.586C650.365 198.586 652.415 199.561 653.819 201.51C655.224 203.431 655.926 206.011 655.926 209.25C655.926 211.601 655.496 213.622 654.636 215.313C653.805 217.004 652.701 218.294 651.325 219.183C649.978 220.072 648.502 220.516 646.896 220.516C645.922 220.516 644.947 220.301 643.972 219.871C643.026 219.441 642.066 218.853 641.091 218.108L641.177 221.763V228.815H637.651ZM646.294 217.549C648.014 217.549 649.433 216.818 650.551 215.356C651.698 213.865 652.271 211.83 652.271 209.25C652.271 206.957 651.841 205.108 650.981 203.703C650.15 202.27 648.745 201.553 646.767 201.553C645.879 201.553 644.976 201.797 644.058 202.284C643.17 202.771 642.209 203.474 641.177 204.391V215.356C642.123 216.159 643.041 216.732 643.929 217.076C644.818 217.391 645.606 217.549 646.294 217.549ZM669.974 220.516C668.111 220.516 666.419 220.086 664.9 219.226C663.381 218.337 662.177 217.076 661.288 215.442C660.399 213.808 659.955 211.859 659.955 209.594C659.955 207.301 660.399 205.337 661.288 203.703C662.205 202.069 663.381 200.808 664.814 199.919C666.247 199.03 667.752 198.586 669.329 198.586C671.995 198.586 674.045 199.475 675.478 201.252C676.94 203.029 677.671 205.409 677.671 208.39C677.671 208.763 677.657 209.135 677.628 209.508C677.628 209.852 677.599 210.153 677.542 210.411H663.438C663.581 212.618 664.269 214.381 665.502 215.7C666.763 217.019 668.397 217.678 670.404 217.678C671.407 217.678 672.325 217.535 673.156 217.248C674.016 216.933 674.833 216.531 675.607 216.044L676.854 218.366C675.965 218.939 674.948 219.441 673.801 219.871C672.683 220.301 671.407 220.516 669.974 220.516ZM663.395 207.874H674.575C674.575 205.753 674.116 204.147 673.199 203.058C672.31 201.94 671.049 201.381 669.415 201.381C667.953 201.381 666.634 201.954 665.459 203.101C664.312 204.219 663.624 205.81 663.395 207.874ZM691.091 220.516C689.256 220.516 687.594 220.086 686.103 219.226C684.612 218.366 683.437 217.119 682.577 215.485C681.717 213.851 681.287 211.887 681.287 209.594C681.287 207.243 681.746 205.251 682.663 203.617C683.609 201.983 684.842 200.736 686.361 199.876C687.909 199.016 689.572 198.586 691.349 198.586C692.725 198.586 693.9 198.83 694.875 199.317C695.878 199.804 696.738 200.378 697.455 201.037L695.649 203.359C695.047 202.814 694.402 202.37 693.714 202.026C693.055 201.682 692.309 201.51 691.478 201.51C690.217 201.51 689.084 201.854 688.081 202.542C687.106 203.201 686.332 204.147 685.759 205.38C685.214 206.584 684.942 207.989 684.942 209.594C684.942 211.973 685.53 213.908 686.705 215.399C687.909 216.861 689.471 217.592 691.392 217.592C692.367 217.592 693.27 217.391 694.101 216.99C694.932 216.56 695.663 216.058 696.294 215.485L697.842 217.85C696.896 218.681 695.85 219.341 694.703 219.828C693.556 220.287 692.352 220.516 691.091 220.516ZM708.551 220.516C706.344 220.516 704.724 219.828 703.692 218.452C702.66 217.047 702.144 215.012 702.144 212.346V199.102H705.713V211.873C705.713 213.822 706.014 215.241 706.616 216.13C707.247 217.019 708.25 217.463 709.626 217.463C710.716 217.463 711.676 217.191 712.507 216.646C713.367 216.073 714.285 215.17 715.259 213.937V199.102H718.785V220H715.861L715.56 216.732H715.431C714.457 217.879 713.425 218.796 712.335 219.484C711.246 220.172 709.985 220.516 708.551 220.516ZM729.576 220.516C728.257 220.516 727.297 220.115 726.695 219.312C726.122 218.481 725.835 217.305 725.835 215.786V189.384H729.361V216.044C729.361 216.589 729.461 216.99 729.662 217.248C729.863 217.477 730.092 217.592 730.35 217.592C730.465 217.592 730.565 217.592 730.651 217.592C730.766 217.563 730.923 217.535 731.124 217.506L731.597 220.172C731.368 220.287 731.095 220.373 730.78 220.43C730.465 220.487 730.063 220.516 729.576 220.516ZM741.611 220.516C739.862 220.516 738.4 220 737.225 218.968C736.078 217.907 735.505 216.445 735.505 214.582C735.505 212.289 736.523 210.54 738.558 209.336C740.622 208.103 743.876 207.243 748.319 206.756C748.319 205.867 748.19 205.022 747.932 204.219C747.703 203.416 747.273 202.771 746.642 202.284C746.04 201.768 745.166 201.51 744.019 201.51C742.815 201.51 741.683 201.739 740.622 202.198C739.561 202.657 738.615 203.173 737.784 203.746L736.408 201.295C737.383 200.664 738.572 200.062 739.977 199.489C741.41 198.887 742.958 198.586 744.621 198.586C747.172 198.586 749.021 199.374 750.168 200.951C751.315 202.499 751.888 204.577 751.888 207.186V220H748.964L748.663 217.506H748.534C747.559 218.309 746.484 219.011 745.309 219.613C744.162 220.215 742.93 220.516 741.611 220.516ZM742.643 217.678C743.646 217.678 744.592 217.434 745.481 216.947C746.37 216.46 747.316 215.772 748.319 214.883V209.078C744.85 209.508 742.414 210.153 741.009 211.013C739.633 211.873 738.945 212.977 738.945 214.324C738.945 215.499 739.303 216.359 740.02 216.904C740.737 217.42 741.611 217.678 742.643 217.678ZM758.463 220V199.102H761.387L761.688 202.886H761.817C762.534 201.567 763.408 200.521 764.44 199.747C765.472 198.973 766.576 198.586 767.751 198.586C768.582 198.586 769.328 198.729 769.987 199.016L769.299 202.112C768.955 201.997 768.64 201.911 768.353 201.854C768.066 201.797 767.708 201.768 767.278 201.768C766.389 201.768 765.458 202.126 764.483 202.843C763.537 203.56 762.706 204.807 761.989 206.584V220H758.463Z" fill="#989898"/>
<rect x="555" y="712" width="274" height="134" rx="60" fill="#2A3837"/>
<path d="M623.845 778.219L622.512 782.519H630.983L629.65 778.219C629.134 776.642 628.647 775.08 628.188 773.532C627.73 771.955 627.271 770.35 626.812 768.716H626.64C626.21 770.35 625.766 771.955 625.307 773.532C624.849 775.08 624.361 776.642 623.845 778.219ZM615.245 794L624.791 765.792H628.833L638.379 794H634.552L631.886 785.4H621.609L618.9 794H615.245ZM642.032 794V773.102H644.956L645.257 776.112H645.386C646.303 775.109 647.307 774.277 648.396 773.618C649.485 772.93 650.646 772.586 651.879 772.586C653.484 772.586 654.731 772.944 655.62 773.661C656.537 774.349 657.211 775.324 657.641 776.585C658.73 775.41 659.834 774.449 660.952 773.704C662.07 772.959 663.26 772.586 664.521 772.586C666.671 772.586 668.262 773.288 669.294 774.693C670.355 776.069 670.885 778.09 670.885 780.756V794H667.359V781.229C667.359 779.28 667.044 777.861 666.413 776.972C665.782 776.083 664.808 775.639 663.489 775.639C661.941 775.639 660.192 776.714 658.243 778.864V794H654.717V781.229C654.717 779.28 654.402 777.861 653.771 776.972C653.14 776.083 652.151 775.639 650.804 775.639C649.256 775.639 647.507 776.714 645.558 778.864V794H642.032ZM686.928 794.516C685.954 794.516 684.936 794.287 683.875 793.828C682.843 793.341 681.869 792.681 680.951 791.85H680.822L680.521 794H677.683V763.384H681.209V771.726L681.123 775.51C682.069 774.679 683.101 773.991 684.219 773.446C685.366 772.873 686.513 772.586 687.659 772.586C690.383 772.586 692.447 773.546 693.851 775.467C695.256 777.388 695.958 779.968 695.958 783.207C695.958 785.586 695.528 787.622 694.668 789.313C693.837 791.004 692.733 792.294 691.357 793.183C690.01 794.072 688.534 794.516 686.928 794.516ZM686.326 791.549C688.046 791.549 689.465 790.818 690.583 789.356C691.73 787.865 692.303 785.83 692.303 783.25C692.303 780.957 691.873 779.108 691.013 777.703C690.182 776.27 688.777 775.553 686.799 775.553C685.911 775.553 685.008 775.797 684.09 776.284C683.173 776.771 682.213 777.474 681.209 778.391V789.356C682.127 790.159 683.03 790.732 683.918 791.076C684.836 791.391 685.638 791.549 686.326 791.549ZM701.451 794V773.102H704.977V794H701.451ZM703.257 768.802C702.569 768.802 701.995 768.601 701.537 768.2C701.107 767.77 700.892 767.197 700.892 766.48C700.892 765.792 701.107 765.233 701.537 764.803C701.995 764.373 702.569 764.158 703.257 764.158C703.945 764.158 704.504 764.373 704.934 764.803C705.392 765.233 705.622 765.792 705.622 766.48C705.622 767.197 705.392 767.77 704.934 768.2C704.504 768.601 703.945 768.802 703.257 768.802ZM720.504 794.516C718.641 794.516 716.949 794.086 715.43 793.226C713.911 792.337 712.707 791.076 711.818 789.442C710.929 787.808 710.485 785.859 710.485 783.594C710.485 781.301 710.929 779.337 711.818 777.703C712.735 776.069 713.911 774.808 715.344 773.919C716.777 773.03 718.282 772.586 719.859 772.586C722.525 772.586 724.575 773.475 726.008 775.252C727.47 777.029 728.201 779.409 728.201 782.39C728.201 782.763 728.187 783.135 728.158 783.508C728.158 783.852 728.129 784.153 728.072 784.411H713.968C714.111 786.618 714.799 788.381 716.032 789.7C717.293 791.019 718.927 791.678 720.934 791.678C721.937 791.678 722.855 791.535 723.686 791.248C724.546 790.933 725.363 790.531 726.137 790.044L727.384 792.366C726.495 792.939 725.478 793.441 724.331 793.871C723.213 794.301 721.937 794.516 720.504 794.516ZM713.925 781.874H725.105C725.105 779.753 724.646 778.147 723.729 777.058C722.84 775.94 721.579 775.381 719.945 775.381C718.483 775.381 717.164 775.954 715.989 777.101C714.842 778.219 714.154 779.81 713.925 781.874ZM733.365 794V773.102H736.289L736.59 776.112H736.719C737.722 775.109 738.783 774.277 739.901 773.618C741.019 772.93 742.295 772.586 743.728 772.586C745.935 772.586 747.541 773.288 748.544 774.693C749.576 776.069 750.092 778.09 750.092 780.756V794H746.566V781.229C746.566 779.28 746.251 777.861 745.62 776.972C744.989 776.083 743.986 775.639 742.61 775.639C741.549 775.639 740.589 775.911 739.729 776.456C738.898 777.001 737.952 777.803 736.891 778.864V794H733.365ZM763.459 794.516C761.223 794.516 759.661 793.871 758.772 792.581C757.912 791.291 757.482 789.614 757.482 787.55V775.983H754.386V773.317L757.654 773.102L758.084 767.254H761.051V773.102H766.684V775.983H761.051V787.593C761.051 788.883 761.281 789.886 761.739 790.603C762.227 791.291 763.072 791.635 764.276 791.635C764.649 791.635 765.05 791.578 765.48 791.463C765.91 791.32 766.297 791.191 766.641 791.076L767.329 793.742C766.756 793.943 766.125 794.115 765.437 794.258C764.778 794.43 764.119 794.516 763.459 794.516Z" fill="#989898"/>
<path d="M371 490.5C369.895 490.5 369 491.395 369 492.5C369 493.605 369.895 494.5 371 494.5V492.5V490.5ZM546.5 205L525.04 196.467L528.38 219.318L546.5 205ZM371 492.5V494.5C413.052 494.5 438.737 478.179 454.757 453.097C470.654 428.207 476.91 394.872 480.731 361.038C484.574 326.995 485.953 292.577 491.92 264.644C497.889 236.702 508.252 216.324 529.298 209.507L528.682 207.604L528.066 205.702C504.813 213.233 494.025 235.642 488.008 263.808C481.99 291.983 480.549 326.996 476.756 360.589C472.939 394.392 466.742 426.9 451.386 450.944C436.152 474.796 411.784 490.5 371 490.5V492.5Z" fill="white"/>
<path d="M371.5 494.5C370.395 494.5 369.5 493.605 369.5 492.5C369.5 491.395 370.395 490.5 371.5 490.5V492.5V494.5ZM547 780L525.54 788.533L528.88 765.682L547 780ZM371.5 492.5V490.5C413.552 490.5 439.237 506.821 455.257 531.903C471.154 556.793 477.41 590.128 481.231 623.962C485.074 658.005 486.453 692.423 492.42 720.356C498.389 748.298 508.752 768.676 529.798 775.493L529.182 777.396L528.566 779.298C505.313 771.767 494.525 749.358 488.508 721.192C482.49 693.017 481.049 658.004 477.256 624.411C473.439 590.608 467.242 558.1 451.886 534.056C436.652 510.204 412.284 494.5 371.5 494.5V492.5Z" fill="white"/>
<path d="M371.5 490C370.119 490 369 491.119 369 492.5C369 493.881 370.119 495 371.5 495V492.5V490ZM547.5 492.5L522.5 478.066V506.934L547.5 492.5ZM371.5 492.5V495H525V492.5V490H371.5V492.5Z" fill="white"/>
<path d="M880.005 475L880.005 509" stroke="white" stroke-width="5" stroke-linecap="round"/>
<path d="M897 492.005L863 492.005" stroke="white" stroke-width="5" stroke-linecap="round"/>
<path d="M1443 475L1443 509" stroke="white" stroke-width="5" stroke-linecap="round"/>
<path d="M1460 492.005L1426 492.005" stroke="white" stroke-width="5" stroke-linecap="round"/>
<path d="M836 205C2811 205 1666.5 492 2332 492" stroke="white" stroke-width="5" stroke-linecap="round"/>
<path d="M836 779C2811 779 1666.5 492 2332 492" stroke="white" stroke-width="5" stroke-linecap="round"/>
<path d="M1964 489.5C1962.62 489.5 1961.5 490.619 1961.5 492C1961.5 493.381 1962.62 494.5 1964 494.5V492V489.5ZM2339 492L2314 477.566V506.434L2339 492ZM1964 492V494.5H2316.5V492V489.5H1964V492Z" fill="white"/>
</svg>
